# xmcd
#
# Track frame offsets:
#	150
#	14497
#	33167
#	54127
#	71577
#	87537
#	105030
#	124595
#	145387
#
# Disc length: 2263 seconds
#
# Revision: 4
# Processed by: cddbd v1.5.2PL0 Copyright (c) Steve Scherf et al.
# Submitted via: EasyCDDAExtractor 15.3.0.1
#
DISCID=6c08d509
DTITLE=Ednita Nazario - Metamorfosis
DYEAR=1992
DGENRE=Latin
TTITLE0=Mirame
TTITLE1=Metamorfosis
TTITLE2=La Cantante
TTITLE3=Un Corazon Hecho Pedazos
TTITLE4=Te Quedas En Mi
TTITLE5=Tres Deseos
TTITLE6=Tanto Nos Amamos
TTITLE7=Y Te Vas
TTITLE8=Un Hombre Para Mi
EXTD=
EXTT0=
EXTT1=
EXTT2=
EXTT3=
EXTT4=
EXTT5=
EXTT6=
EXTT7=
EXTT8=
PLAYORDER=
